<?xml version="1.0" encoding="UTF-8"?>
<svg xmlns="http://www.w3.org/2000/svg" version="1.1" viewBox="0 0 271.58 179.38">
  <!-- Generator: Adobe Illustrator 29.3.1, SVG Export Plug-In . SVG Version: 2.1.0 Build 151)  -->
  <defs>
    <style>
      .st0 {
        fill: #fff;
      }

      .st1 {
        fill: #111827;
      }
    </style>
  </defs>
  <g id="BG">
    <rect class="st1" width="271.58" height="179.38"/>
  </g>
  <g id="Layer_1">
    <path class="st0" d="M78.19,127.89c-9.15,0-12.4,7.28-12.4,13.51s3.25,13.51,12.4,13.51,12.4-7.28,12.4-13.51-3.25-13.51-12.4-13.51M78.19,152.34c-5.36,0-8.96-4.4-8.96-10.94s3.6-10.94,8.96-10.94,8.96,4.4,8.96,10.94-3.6,10.94-8.96,10.94"/>
    <path class="st0" d="M96.53,132.63v-4.23h-2.92v25.8h3.12v-12.91c0-4.75,1.35-10.43,7.76-10.43l.98.05v-.1l.17-3.01h-.36c-4.33,0-7.27,1.63-8.75,4.84"/>
    <path class="st0" d="M159.98,133.43c-2.15-.71-3.73-1.12-6.3-1.12-1.89,0-4.14.66-4.14,2.91,0,4.18,12.23,1.53,12.23,11,0,6.12-5.61,8.56-11.33,8.56-2.68,0-5.41-.46-7.98-1.12l.42-5.61c2.2,1.07,4.51,1.73,6.92,1.73,1.79,0,4.62-.66,4.62-3.21,0-5.15-12.23-1.63-12.23-11.11,0-5.65,5.09-8.15,10.6-8.15,3.31,0,5.46.51,7.66.97l-.47,5.14h0Z"/>
    <rect class="st0" x="192.72" y="127.96" width="7.03" height="26.24"/>
    <path class="st0" d="M243.73,133.43c-2.15-.71-3.73-1.12-6.3-1.12-1.89,0-4.15.66-4.15,2.91,0,4.18,12.23,1.53,12.23,11,0,6.12-5.61,8.56-11.33,8.56-2.68,0-5.4-.46-7.98-1.12l.42-5.61c2.2,1.07,4.51,1.73,6.93,1.73,1.78,0,4.62-.66,4.62-3.21,0-5.15-12.23-1.63-12.23-11.11,0-5.65,5.09-8.15,10.6-8.15,3.3,0,5.45.51,7.66.97l-.47,5.14h0Z"/>
    <polygon class="st0" points="178.98 139.72 188.95 127.96 180.65 127.96 172.26 138.46 172.15 138.46 172.15 113.84 165.12 115.99 165.12 154.2 172.15 154.2 172.15 141.46 172.26 141.46 181.29 154.2 190.21 154.2 178.98 139.72"/>
    <path class="st0" d="M137.97,115.28l-3,.92v15.95c-.65-1.09-3.09-4.43-8.54-4.36-9.03.11-10.93,7.41-10.93,13.51,0,8.33,4.19,13.51,10.93,13.51,4.02,0,6.73-1.48,8.54-4.61v4h3.12v-38.96l-.13.04h.01ZM126.96,152.24c-7.23,0-8.02-7.65-8.02-10.94s.78-10.94,8.02-10.94c5.54,0,8.02,5.49,8.02,10.94s-2.48,10.94-8.02,10.94"/>
    <polygon class="st0" points="111.9 115.28 108.9 116.2 108.9 154.2 112.03 154.2 112.03 115.24 111.9 115.28"/>
    <polygon class="st0" points="204.29 115.99 204.29 154.2 211.32 154.2 211.32 113.84 204.29 115.99"/>
    <polygon class="st0" points="215.37 115.99 215.37 115.99 215.37 154.2 222.4 154.2 222.4 113.84 215.37 115.99"/>
    <path class="st0" d="M200.3,118.16c0-2.16-1.76-3.92-3.92-3.92s-3.91,1.75-3.91,3.92,1.75,3.92,3.91,3.92,3.92-1.75,3.92-3.92"/>
    <path class="st0" d="M29.27,128.4h-3.35l.04.13c.16.49,8.4,25.38,8.48,25.6l.02.07h3.86s7.25-22.33,7.29-22.47h.24c.05.14,7.29,22.47,7.29,22.47h3.86l8.75-25.8h-3.11s-7.35,22.33-7.4,22.47h-.24c-.04-.13-7.08-22.47-7.08-22.47h-3.86s-7.41,22.33-7.45,22.47h-.24c-.04-.14-7.03-22.47-7.03-22.47h-.07Z"/>
    <path class="st0" d="M186.41,70.89s12.35-2.19,16.39-12c0,0,71.89,14.73,29.45,53.07,0,0,15.75-14.83,6.95-26.69,0,0,4.91,14.73-14.32,24.64,0,0,41.7-29.62-38.48-39.03"/>
    <path class="st0" d="M225.8,65.52c5.03,2.49,8.55,4.93,10.6,6.54.9-25.74-17.55-40.13-17.55-40.13-.54,1.65-2.15,3.49-4.45,4.33-2.3.84-3.68,3.6-3.68,3.6,9.02,7.5,13.35,16.66,15.08,25.65"/>
    <path class="st0" d="M200.9,60.71c1.09-1.63,1.39-2.74,1.39-2.74,4.75.84,9.02,1.96,12.81,3.2-7.88-22.46-22.53-34.75-22.53-34.75-.41,1.18-4.7,3.32-7.62,4.6-2.91,1.28-2.15,6.7-2.15,6.7,8.01,6.62,13.84,14.72,18.08,22.99"/>
    <path class="st0" d="M231.03,85.59c-.99,11.08-7.57,22.84-7.57,22.84,4.65-7.07,7.82-13.7,9.87-19.88-.58-1.04-1.35-2.03-2.3-2.96"/>
    <path class="st0" d="M230.17,84.81c-1.08-.93-2.34-1.8-3.73-2.62-1.15,11.92-5.13,20.88-5.13,20.88,2.3-2.61,4.06-6.83,4.06-6.83.08,2.99-2.38,8.9-2.38,8.9,4.22-6.78,6.24-15.03,7.17-20.33"/>
    <path class="st0" d="M205.22,108.02c-2.56-1.38-6.26-2.84-13.88-8.74,5.77,4.34,15.39,7.11,15.39,7.11-21.26-10.79-25.89-20.57-25.89-20.57-2.05-.07-3.28,1.23-4.09,1.68-.81.44-3.02.41-3.02.41,8.1,13.06,31.49,20.11,31.49,20.11Z"/>
    <path class="st0" d="M195.71,72.86c-7.06-1.17-12.25-1.62-12.25-1.62,2.82-.71,5.22-1.57,7.28-2.51-9.94-7.24-19.84-9.02-19.84-9.02,0,0-1.84.61-2.1,3.68-.25,3.07-2.61,3.48-2.61,3.48,37.12,9.92,42.69,40.5,42.69,40.5-2.53-13.81-7.9-22.63-7.9-22.63,5.68,5.83,9.59,20.63,9.59,20.63-1.26-15.3-7.61-25.62-14.87-32.51"/>
    <path class="st0" d="M206.82,75.07c5.34,16.49,5.45,30.45,5.45,30.45,3.95-7.67,2.91-25.31,2.91-25.31,3.68,7.21,3.22,26.84,3.22,26.84,1.89-10.32,1.96-19.75.88-28.24-3.92-1.5-8.23-2.74-12.46-3.74"/>
  </g>
</svg>